<svg width="20" height="24" viewBox="0 0 20 24" fill="none" xmlns="http://www.w3.org/2000/svg">
<path d="M20 4.145L15.986 0H8C7.20435 0 6.44129 0.31607 5.87868 0.878679C5.31607 1.44129 5 2.20435 5 3V4H3C2.20435 4 1.44129 4.31607 0.87868 4.87868C0.316071 5.44129 0 6.20435 0 7V24H16V19H20V4.145ZM14 22H2V7C2 6.73478 2.10536 6.48043 2.29289 6.29289C2.48043 6.10536 2.73478 6 3 6H5V19H14V22ZM7 17V3C7 2.73478 7.10536 2.48043 7.2929 2.29289C7.48043 2.10536 7.73479 2 8 2H14V6H18V17H7Z" fill="#BEBEBE"/>
</svg>
